<svg width="48" height="48" viewBox="0 0 48 48" fill="none" xmlns="http://www.w3.org/2000/svg"><path fill="currentColor" fill-rule="evenodd" clip-rule="evenodd" d="M32 10H16C8.268 10 2 16.268 2 24s6.268 14 14 14h16c7.732 0 14-6.268 14-14s-6.268-14-14-14zM16 8C7.163 8 0 15.163 0 24s7.163 16 16 16h16c8.837 0 16-7.163 16-16S40.837 8 32 8H16zm-1 23a7 7 0 1 0 0-14 7 7 0 0 0 0 14zm0 2a9 9 0 1 0 0-18 9 9 0 0 0 0 18zm3-10a2 2 0 1 0 0-4 2 2 0 0 0 0 4z"></path><path d="M39 24a4 4 0 1 1-8 0 4 4 0 0 1 8 0z" fill="#0F0"></path></svg>